<svg width="32" height="32" viewBox="0 0 32 32" fill="none" xmlns="http://www.w3.org/2000/svg">
<path d="M29.5 0H2.5C1.11867 0 0 1.12 0 2.5V29.5C0 30.8813 1.12 32 2.5 32H29.5C30.8813 32 32 30.88 32 29.5V2.5C32 1.11867 30.88 0 29.5 0ZM16 25C15.2107 25 14.4409 24.9467 13.6907 24.84C12.9413 25.368 8.60667 28.412 8.19733 28.4693C8.19733 28.4693 8.03067 28.5347 7.888 28.4507C7.74533 28.3667 7.77067 28.1453 7.77067 28.1453C7.81333 27.852 8.89467 24.1213 9.09333 23.4347C5.43333 21.6213 3 18.4093 3 14.7507C3 9.08933 8.82 4.5 16 4.5C23.18 4.5 29 9.08933 29 14.7507C29 20.412 23.18 25 16 25ZM10.7333 13.156H9.56267V17.612C9.56267 18.0067 9.22667 18.328 8.812 18.328C8.39733 18.328 8.06267 18.008 8.06267 17.612V13.156H6.892C6.70669 13.1423 6.53342 13.059 6.40696 12.9229C6.2805 12.7867 6.21022 12.6078 6.21022 12.422C6.21022 12.2362 6.2805 12.0573 6.40696 11.9211C6.53342 11.785 6.70669 11.7017 6.892 11.688H10.732C10.9173 11.7017 11.0906 11.785 11.217 11.9211C11.3435 12.0573 11.4138 12.2362 11.4138 12.422C11.4138 12.6078 11.3435 12.7867 11.217 12.9229C11.0906 13.059 10.9173 13.1423 10.732 13.156M25.3813 17.0987C25.4411 17.1772 25.4847 17.2667 25.5096 17.3621C25.5346 17.4576 25.5404 17.557 25.5267 17.6547C25.5129 17.7521 25.48 17.8458 25.4299 17.9305C25.3798 18.0151 25.3134 18.0891 25.2347 18.148C25.105 18.2464 24.9468 18.2998 24.784 18.3C24.6676 18.3004 24.5528 18.2736 24.4486 18.2218C24.3444 18.1699 24.2538 18.0944 24.184 18.0013L22.4253 15.672L22.1653 15.932V17.568C22.165 17.7668 22.086 17.9573 21.9456 18.0979C21.8051 18.2386 21.6147 18.318 21.416 18.3187C21.2169 18.3187 21.026 18.2396 20.8852 18.0988C20.7444 17.958 20.6653 17.7671 20.6653 17.568V12.4373C20.6735 12.2439 20.7561 12.0611 20.8958 11.9271C21.0356 11.7931 21.2217 11.7183 21.4153 11.7183C21.6089 11.7183 21.7951 11.7931 21.9348 11.9271C22.0746 12.0611 22.1572 12.2439 22.1653 12.4373V14.0507L24.2587 11.9573C24.3693 11.8488 24.5183 11.7884 24.6733 11.7893C24.86 11.7893 25.0493 11.8707 25.1907 12.012C25.3188 12.1385 25.397 12.3071 25.4107 12.4867C25.4174 12.5703 25.4061 12.6544 25.3776 12.7333C25.3491 12.8122 25.304 12.884 25.2453 12.944L23.536 14.652L25.3813 17.0987ZM14.248 12.4293C14.1213 12.0693 13.7373 11.6987 13.248 11.688C12.76 11.6987 12.376 12.0693 12.2493 12.428L10.456 17.1493C10.228 17.856 10.4267 18.12 10.6333 18.216C10.7833 18.2824 10.9453 18.3173 11.1093 18.3187C11.4227 18.3187 11.6613 18.192 11.7333 17.988L12.1053 17.0147H14.392L14.764 17.988C14.836 18.192 15.0747 18.3187 15.388 18.3187C15.5521 18.3169 15.7141 18.2815 15.864 18.2147C16.0707 18.12 16.2693 17.8573 16.0413 17.148L14.248 12.4293ZM12.5 15.6867L13.2493 13.5587L13.9973 15.6867H12.5ZM20.3733 17.5307C20.3684 17.7169 20.2902 17.8937 20.1556 18.0226C20.021 18.1514 19.841 18.2219 19.6547 18.2187H17.2493C17.0628 18.2222 16.8824 18.1519 16.7476 18.023C16.6127 17.8942 16.5342 17.7172 16.5293 17.5307V12.4373C16.5293 12.024 16.8733 11.688 17.296 11.688C17.7187 11.688 18.0613 12.024 18.0613 12.4373V16.844H19.6547C20.0507 16.844 20.3747 17.152 20.3747 17.5307" fill="white"/>
</svg>
